<svg xmlns="http://www.w3.org/2000/svg" viewBox="0 0 500 400">
  <defs>
    <linearGradient id="deskGrad" x1="0%" y1="0%" x2="100%" y2="100%">
      <stop offset="0%" style="stop-color:#6366f1;stop-opacity:0.2" />
      <stop offset="100%" style="stop-color:#10b981;stop-opacity:0.2" />
    </linearGradient>
  </defs>
  <rect width="500" height="400" fill="url(#deskGrad)" rx="20"/>
  <!-- Desk -->
  <rect x="50" y="280" width="400" height="20" fill="#374151" rx="5"/>
  <!-- Monitor -->
  <rect x="150" y="100" width="200" height="140" fill="#1f2937" rx="10"/>
  <rect x="160" y="110" width="180" height="110" fill="#4f46e5"/>
  <!-- Code lines -->
  <rect x="170" y="125" width="80" height="8" fill="#10b981" rx="2"/>
  <rect x="170" y="145" width="120" height="8" fill="#f59e0b" rx="2"/>
  <rect x="170" y="165" width="60" height="8" fill="#818cf8" rx="2"/>
  <rect x="170" y="185" width="100" height="8" fill="#6366f1" rx="2"/>
  <!-- Monitor stand -->
  <rect x="230" y="240" width="40" height="40" fill="#374151"/>
  <rect x="200" y="275" width="100" height="10" fill="#374151" rx="3"/>
  <!-- Coffee cup -->
  <ellipse cx="420" cy="265" rx="25" ry="8" fill="#6b7280"/>
  <rect x="395" y="235" width="50" height="30" fill="#f9fafb" rx="3"/>
  <ellipse cx="420" cy="235" rx="25" ry="8" fill="#e5e7eb"/>
  <path d="M 445 245 Q 460 250 445 265" stroke="#6b7280" stroke-width="4" fill="none"/>
  <!-- Plant -->
  <rect x="65" y="240" width="30" height="40" fill="#f59e0b" rx="3"/>
  <ellipse cx="80" cy="220" rx="25" ry="20" fill="#10b981"/>
  <ellipse cx="65" cy="200" rx="15" ry="12" fill="#10b981"/>
  <ellipse cx="95" cy="205" rx="18" ry="15" fill="#10b981"/>
</svg>
